<?xml version="1.0" encoding="utf-8"?>
<!-- Generator: Adobe Illustrator 25.2.0, SVG Export Plug-In . SVG Version: 6.00 Build 0)  -->
<svg version="1.1" id="Logos" xmlns="http://www.w3.org/2000/svg" xmlns:xlink="http://www.w3.org/1999/xlink" x="0px" y="0px"
	 viewBox="0 0 1592.33 569.54" style="enable-background:new 0 0 1592.33 569.54;" xml:space="preserve">
<style type="text/css">
	.st0{fill:#F15A22;}
	.st1{display:none;}
	.st2{display:inline;fill:#F15A22;}
	.st3{fill:#FFFFFF;}
	.st4{display:inline;fill:#0C233F;}
	.st5{display:inline;fill:#FFFFFF;}
	.st6{display:inline;}
	.st7{fill:#001641;}
	.st8{display:inline;fill:#001641;}
</style>
<g id="Horizontal_-_No_Wordmark">
</g>
<g id="Stacked_-_No_Wordmark">
</g>
<g id="Horizontal_1_">
	<g>
		<g>
			<path class="st3" d="M96.48,309.2l8.85,11.39c-7.32,6.71-14.65,9.66-24,9.66c-19.01,0-31.32-11.8-31.32-34.47
				c0-26.74,16.68-35.59,31.83-35.59c9.05,0,18,3.96,24.51,14.03l-12.41,8.95c-3.97-5.49-8.03-8.44-12.91-8.44
				c-7.63,0-13.02,6.71-13.02,20.04c0,12.81,4.37,21.15,14.24,21.15C87.43,315.91,92.11,313.27,96.48,309.2z"/>
			<path class="st3" d="M142.26,329.03h-17.49V261.4h24.2c15.66,0,26.14,4.78,26.14,19.22c0,8.54-5.19,14.54-10.48,17.19
				c1.83,0.91,3.46,2.84,4.48,5.29l11.39,25.93h-18.71l-9.36-21.46c-1.12-2.54-2.75-3.86-5.39-3.86h-4.78V329.03z M148.86,290.28
				c5.19,0,8.34-2.64,8.34-8.23c0-5.6-3.36-7.02-9.66-7.02h-5.29v15.25H148.86z"/>
			<path class="st3" d="M198.81,261.4h44.24v15.25H216.3v10.27h22.98v15.25H216.3v11.59h27.46v15.25h-44.95V261.4z"/>
			<path class="st3" d="M259.43,329.03l21.96-67.62h19.63l23.39,67.62h-18.61l-4.58-14.44h-20.44l-4.58,14.44H259.43z
				 M283.74,301.77h14.24l-6.81-24.1c-0.1,0-0.3,0-0.41,0L283.74,301.77z"/>
			<path class="st3" d="M383.61,261.4v15.25H364.9v52.37h-17.39v-52.37h-18V261.4H383.61z"/>
			<path class="st3" d="M403.46,329.03V261.4h17.49v67.62H403.46z"/>
			<path class="st3" d="M500.99,261.4v67.62h-15.46l-22.98-37.52c-0.1,0-0.21,0-0.3,0v37.52h-17.29V261.4h16.17l22.27,36.81
				c0.1,0,0.21,0,0.21,0V261.4H500.99z"/>
			<path class="st3" d="M578.81,323.33c-5.69,4.07-14.95,6.92-25.22,6.92c-19.02,0-31.22-11.39-31.22-34.88
				c0-26.34,16.47-35.19,31.12-35.19c8.74,0,17.9,2.34,25.63,13.42l-12.71,9.35c-4.58-6-8.54-8.13-13.12-8.13
				c-7.93,0-12.91,6.61-12.91,19.53c0,13.32,3.97,21.86,13.73,21.86c2.24,0,5.6-0.5,7.12-1.22v-20.85h17.59V323.33z"/>
		</g>
		<g class="st1">
			<path class="st4" d="M740.44,357.79v34.18h-65.39v24.83h54.22v34.18h-54.22v58.33h-39.19V357.79H740.44z"/>
			<path class="st4" d="M802.1,357.79v99.1c0,17.33,8.89,22.56,21.42,22.56c11.85,0,20.28-7.06,20.28-21.42V357.79h39.19v104.8
				c0,30.75-24.61,49.44-60.38,49.44c-39.42,0-59.7-15.94-59.7-52.86V357.79H802.1z"/>
			<path class="st4" d="M1024.84,357.79v34.18h-41.92V509.3h-38.96V391.97h-40.33v-34.18H1024.84z"/>
			<path class="st4" d="M1084.44,357.79v99.1c0,17.33,8.89,22.56,21.42,22.56c11.85,0,20.28-7.06,20.28-21.42V357.79h39.19v104.8
				c0,30.75-24.61,49.44-60.38,49.44c-39.42,0-59.7-15.94-59.7-52.86V357.79H1084.44z"/>
			<path class="st4" d="M1234.28,509.3h-39.19V357.79h54.22c35.09,0,58.56,10.72,58.56,43.06c0,19.14-11.62,32.58-23.46,38.51
				c4.1,2.05,7.74,6.38,10.02,11.85l25.52,58.09h-41.92l-20.96-48.07c-2.51-5.7-6.16-8.66-12.08-8.66h-10.71V509.3z M1249.08,422.49
				c11.63,0,18.69-5.92,18.69-18.46c0-12.53-7.52-15.71-21.64-15.71h-11.85v34.17H1249.08z"/>
			<path class="st4" d="M1338.99,357.79h99.1v34.18h-59.92v23h51.48v34.18h-51.48v25.97h61.51v34.18h-100.7V357.79z"/>
			<path class="st4" d="M1467.86,464.18c10.49,6.61,30.3,13.9,43.29,13.9c8.42,0,15.71-2.73,15.71-13.21c0-9.34-9.79-12.53-23-16.4
				c-19.37-5.93-43.52-15.27-43.52-45.8s23.69-47.62,55.14-47.62c21.64,0,42.15,9.57,55.59,22.56l-20.28,25.74
				c-12.08-8.88-24.84-15.49-35.31-15.49c-7.29,0-14.35,3.41-14.35,11.85c0,9.57,10.47,12.99,24.61,17.55
				c20.73,6.61,43.05,15.72,43.05,46.25c0,31.67-24.14,48.53-57.86,48.53c-22.78,0-46.48-9.11-56.27-15.72L1467.86,464.18z"/>
		</g>
		<g>
			<path class="st3" d="M742.7,357.32v34.59h-66.18v25.14h54.88v34.59h-54.88v59.04h-39.67V357.32H742.7z"/>
			<path class="st3" d="M799.63,357.32v100.31c0,17.53,9,22.83,21.68,22.83c11.99,0,20.52-7.15,20.52-21.68V357.32h39.67V463.4
				c0,31.13-24.91,50.04-61.11,50.04c-39.9,0-60.42-16.14-60.42-53.5V357.32H799.63z"/>
			<path class="st3" d="M1019.61,357.32v34.59h-42.43v118.76h-39.44V391.91h-40.82v-34.59H1019.61z"/>
			<path class="st3" d="M1074.47,357.32v100.31c0,17.53,9,22.83,21.68,22.83c11.99,0,20.52-7.15,20.52-21.68V357.32h39.67V463.4
				c0,31.13-24.91,50.04-61.11,50.04c-39.9,0-60.42-16.14-60.42-53.5V357.32H1074.47z"/>
			<path class="st3" d="M1220.65,510.68h-39.67V357.32h54.89c35.51,0,59.27,10.83,59.27,43.59c0,19.37-11.76,32.98-23.75,38.97
				c4.15,2.07,7.84,6.46,10.15,11.99l25.82,58.81h-42.43l-21.22-48.66c-2.54-5.77-6.22-8.77-12.22-8.77h-10.83V510.68z
				 M1235.64,422.81c11.76,0,18.91-5.99,18.91-18.68c0-12.68-7.61-15.91-21.91-15.91h-11.99v34.59H1235.64z"/>
			<path class="st3" d="M1321.17,357.32h100.32v34.59h-60.65v23.29h52.12v34.59h-52.12v26.29h62.26v34.59h-101.93V357.32z"/>
			<path class="st3" d="M1446.13,465.02c10.61,6.69,30.67,14.07,43.82,14.07c8.53,0,15.91-2.77,15.91-13.38
				c0-9.46-9.92-12.68-23.29-16.6c-19.61-6-44.05-15.45-44.05-46.35s23.98-48.2,55.8-48.2c21.91,0,42.66,9.69,56.27,22.83
				l-20.52,26.06c-12.22-9-25.14-15.68-35.75-15.68c-7.38,0-14.53,3.46-14.53,11.99c0,9.69,10.61,13.15,24.91,17.76
				c20.98,6.69,43.59,15.91,43.59,46.81c0,32.05-24.45,49.12-58.58,49.12c-23.06,0-47.04-9.22-56.96-15.91L1446.13,465.02z"/>
		</g>
		<g>
			<path class="st0" d="M111.89,357.14c29.29,0,53.27,8.53,53.27,40.12c0,12.45-6.46,23.06-14.53,30.67
				c13.61,7.15,22.14,17.53,22.14,34.6c0,30.9-23.06,47.97-65.03,47.97H48.47V357.14H111.89z M96.44,415.94h6.92
				c9,0,13.15-6,13.15-12.45c0-8.77-5.07-11.76-11.76-11.76h-8.3V415.94z M96.44,474.52h9.92c11.53,0,15.45-4.85,15.45-13.38
				c0-8.53-5.31-11.99-14.53-11.99H96.44V474.52z"/>
			<path class="st0" d="M252.76,513.26c-44.05,0-69.88-26.98-69.88-79.1c0-59.04,38.98-79.79,73.33-79.79
				c36.44,0,68.26,21.22,68.26,79.79C324.48,486.51,295.65,513.26,252.76,513.26z M254.37,474.06c16.6,0,21.22-18.91,21.22-39.21
				c0-16.37-3.46-40.82-22.37-40.82c-15.68,0-21.21,18.45-21.21,38.05C232.01,450.07,235.23,474.06,254.37,474.06z"/>
			<path class="st0" d="M341.29,357.14h47.97v111.15h58.34v42.2H341.29V357.14z"/>
			<path class="st0" d="M468.05,357.14h56.5c47.04,0,76.1,22.14,76.1,71.72c0,59.5-35.98,81.64-75.41,81.64h-57.19V357.14z
				 M516.02,473.59h9.69c16.83,0,26.98-13.14,26.98-41.04c0-30.9-14.07-38.28-29.29-38.28h-7.38V473.59z"/>
		</g>
	</g>
	<g>
		<g>
			<path class="st3" d="M199.18,53.85v95.89c0,21.94-0.91,43.65-17.87,60.16c-14.25,14.02-36.64,19-56.54,19
				c-19.9,0-42.29-4.98-56.54-19c-16.96-16.51-17.87-38.22-17.87-60.16V53.85H94.7v89.79c0,22.16,1.58,46.36,30.08,46.36
				c28.5,0,30.08-24.2,30.08-46.36V53.85H199.18z"/>
			<path class="st3" d="M270.2,224.37h-44.33V91.39h-36.64V53.85h117.6v37.54H270.2V224.37z"/>
			<path class="st3" d="M391.65,97.72c-8.14-6.78-18.55-11.31-29.4-11.31c-8.14,0-19,4.75-19,14.25c0,9.95,11.99,13.8,19.68,16.28
				l11.31,3.39c23.74,7.01,42.07,19,42.07,46.59c0,16.96-4.07,34.38-17.64,45.91c-13.34,11.31-31.21,16.06-48.4,16.06
				c-21.48,0-42.52-7.24-59.93-19.45l19-35.73c11.08,9.73,24.2,17.64,39.35,17.64c10.4,0,21.48-5.2,21.48-17.19
				c0-12.44-17.41-16.74-26.91-19.45c-27.82-7.91-46.14-15.15-46.14-48.17c0-34.6,24.65-57.22,58.8-57.22
				c17.19,0,38.22,5.43,53.37,14.02L391.65,97.72z"/>
			<path class="st3" d="M455.89,194.74l-11.76,29.63h-47.04l65.59-170.52h48.4l64.23,170.52h-47.27l-11.08-29.63H455.89z
				 M486.87,106.54h-0.45l-18.32,54.28h36.87L486.87,106.54z"/>
		</g>
		<g>
			<path class="st3" d="M588.93,200.69c7.21,0,12.81,5.6,12.81,12.58c0,7.14-5.6,12.66-12.89,12.66c-7.21,0-12.96-5.53-12.96-12.66
				c0-6.98,5.76-12.58,12.96-12.58H588.93z M588.78,203.23c-5.53,0-9.67,4.53-9.67,10.05c0,5.6,4.14,10.05,9.82,10.05
				c5.53,0.07,9.59-4.45,9.59-10.05c0-5.52-4.07-10.05-9.67-10.05H588.78z M586.86,219.8h-2.91v-12.5c1.15-0.23,2.76-0.46,4.83-0.46
				c2.38,0,3.45,0.38,4.37,1c0.69,0.54,1.23,1.53,1.23,2.69c0,1.46-1.07,2.53-2.61,2.99v0.15c1.23,0.38,1.92,1.39,2.3,3.07
				c0.38,1.92,0.61,2.68,0.92,3.07h-3.15c-0.38-0.46-0.61-1.53-0.99-2.99c-0.23-1.38-1-1.99-2.62-1.99h-1.38V219.8z M586.93,212.74
				h1.39c1.61,0,2.92-0.54,2.92-1.84c0-1.15-0.85-1.92-2.69-1.92c-0.77,0-1.3,0.08-1.61,0.15V212.74z"/>
		</g>
	</g>
	<g>
		<path class="st3" d="M1569.76,488.2c7.21,0,12.81,5.6,12.81,12.58c0,7.14-5.6,12.66-12.89,12.66c-7.21,0-12.96-5.53-12.96-12.66
			c0-6.98,5.76-12.58,12.96-12.58H1569.76z M1569.6,490.73c-5.53,0-9.67,4.53-9.67,10.05c0,5.6,4.14,10.05,9.82,10.05
			c5.53,0.07,9.59-4.45,9.59-10.05c0-5.52-4.07-10.05-9.67-10.05H1569.6z M1567.68,507.3h-2.91v-12.5c1.15-0.23,2.76-0.46,4.83-0.46
			c2.38,0,3.45,0.38,4.37,1c0.69,0.54,1.23,1.53,1.23,2.69c0,1.46-1.07,2.53-2.61,2.99v0.15c1.23,0.38,1.92,1.39,2.3,3.07
			c0.38,1.92,0.61,2.68,0.92,3.07h-3.15c-0.38-0.46-0.61-1.53-0.99-2.99c-0.23-1.38-1-1.99-2.62-1.99h-1.38V507.3z M1567.76,500.24
			h1.39c1.61,0,2.92-0.54,2.92-1.84c0-1.15-0.85-1.92-2.69-1.92c-0.77,0-1.3,0.08-1.61,0.15V500.24z"/>
	</g>
</g>
</svg>
